PathFileType	4	(X/Y/Z)	RBDS023\RBDS023runT25.trc
DataRate	CameraRate	NumFrames	NumMarkers	Units	OrigDataRate	OrigDataStartFrame	OrigNumFrames
150.000000	150.000000	4	33	mm	150.000000	1687	4500
Frame#	Time	L.ASIS			L.Heel.Bottom			L.Heel.Lateral			L.Heel.Top			L.Iliac.Crest			L.MT1			L.MT5			L.PSIS			L.Shank.Bottom.Lateral			L.Shank.Bottom.Medial			L.Shank.Top.Lateral			L.Shank.Top.Medial			L.Thigh.Bottom.Lateral			L.Thigh.Bottom.Medial			L.Thigh.Top.Lateral			L.Thigh.Top.Medial			R.ASIS			R.ASY			R.Heel.Bottom			R.Heel.Lateral			R.Heel.Top			R.Iliac.Crest			R.MT1			R.MT5			R.PSIS			R.Shank.Bottom.Lateral			R.Shank.Bottom.Medial			R.Shank.Top.Lateral			R.Shank.Top.Medial			R.Thigh.Bottom.Lateral			R.Thigh.Bottom.Medial			R.Thigh.Top.Lateral			R.Thigh.Top.Medial			
		X1	Y1	Z1	X2	Y2	Z2	X3	Y3	Z3	X4	Y4	Z4	X5	Y5	Z5	X6	Y6	Z6	X7	Y7	Z7	X8	Y8	Z8	X9	Y9	Z9	X10	Y10	Z10	X11	Y11	Z11	X12	Y12	Z12	X13	Y13	Z13	X14	Y14	Z14	X15	Y15	Z15	X16	Y16	Z16	X17	Y17	Z17	X18	Y18	Z18	X19	Y19	Z19	X20	Y20	Z20	X21	Y21	Z21	X22	Y22	Z22	X23	Y23	Z23	X24	Y24	Z24	X25	Y25	Z25	X26	Y26	Z26	X27	Y27	Z27	X28	Y28	Z28	X29	Y29	Z29	X30	Y30	Z30	X31	Y31	Z31	X32	Y32	Z32	X33	Y33	Z33	

1688	11.24666666666667	2379.320980815442	1058.030742055844	906.0598406430487	2242.077492471073	107.2981594531643	961.7891031228695	2270.198981783501	123.7106671851269	920.4845983387819	2261.570490947269	150.4149565724906	964.2735876639744	2309.026727799266	1141.298467391281	853.1384641526919	2464.140387854646	68.8571291238879	982.3157531542053	2423.606994071375	73.45290478111178	873.5760077022995	2200.911617489649	1105.052581887031	947.2086817350654	2348.890824682518	226.8640961319627	900.0139221075059	2308.155661341608	236.5980159957116	929.2890183491949	2359.082533971028	305.3763178691251	882.6917381210242	2319.561019200539	319.3945999067275	915.31766448142	2411.718073585491	724.1420958587751	846.1497616033464	2354.172661982763	696.7786237102496	877.2234543276487	2357.105087704868	819.4076478438066	835.5537237651489	2302.600978551321	793.8155673744924	867.1103562264771	2369.163483085837	1048.998785393489	1114.765075660885	2034.150317102519	90.74602082072346	1042.013007404817	1842.836499170743	144.3719790325074	1014.723517035305	1872.07857033146	143.0135667602246	1061.401315412787	1875.318861695262	178.9280243048154	1018.611393636801	2324.144414983529	1140.981907028714	1155.11146748749	2035.821665203614	39.77388765581802	991.1340710584025	1998.330576945667	49.01877347187808	1100.994535404325	2198.655715880881	1110.383742122599	1058.94430632727	1974.648668114009	233.8860252150969	1090.180213448498	1934.445983236119	254.8780334050457	1056.832502486807	1995.987476938342	309.5739668728016	1111.140742722623	1955.876526944541	329.0584241556543	1079.4606216084	2161.141078830892	682.3688622223156	1145.180125258043	2110.08121964613	699.581989946461	1095.225593395527	2179.889407791287	789.2972759537936	1158.608722118432	2131.884192205755	805.9128335398699	1110.823091388709	
1689	11.25333333333333	2380.060824311305	1061.765629148098	905.7581940946907	2265.835383852595	94.73307896755963	962.7981818805058	2293.18616698488	112.6522143175907	921.5131602475627	2282.502402309447	138.9678313132848	965.1100923100813	2309.401466000076	1145.873738513127	853.2840934097301	2489.660430634751	70.80061294035531	984.8983743098465	2449.722517483424	72.10069525564735	875.8685189733632	2202.171645432793	1109.318747693766	947.384077088398	2365.309748963256	220.7825812717626	900.7241996253341	2323.920722978693	228.2746789145587	929.6778209813259	2370.985178332157	299.5820615294471	882.8026896730732	2330.461972892572	311.4780616004213	915.0171050353936	2407.803879915586	725.3090851035547	846.1075823593721	2349.847780236139	698.8031873848132	877.1099386411188	2354.690080784644	821.4434623001855	835.5880619164445	2299.778021326932	796.6538638306729	867.0211984860265	2370.611933359809	1052.348154767645	1114.308013011347	2022.391335784459	92.87897193654557	1042.474612246896	1833.772020511552	155.4194730744939	1014.875560681502	1862.845124238045	152.5541076910253	1061.627849687992	1867.839867707376	188.4693691185765	1018.979276309341	2326.442235490758	1145.377429651187	1154.228259246059	2022.150377713227	41.37871236968684	991.534661408597	1984.704204731431	52.16606911540016	1101.298232291827	2200.32585462851	1114.55111682184	1059.146847144096	1966.057504316327	240.2360921152052	1090.960908125397	1926.155580952807	261.1192454196874	1057.122932944791	1987.400707814082	315.9833588853519	1111.712022523901	1947.637496253784	335.3963743374671	1079.428114370819	2156.324565112984	688.1458184590776	1145.814600629253	2105.671948802706	706.3607196362359	1095.703547520749	2177.081371794669	794.7698021007128	1159.353949263376	2129.704717432699	812.2174952431178	1111.22601073551	
1690	11.26	2380.712977239325	1064.901084371229	905.4818756690511	2289.274283670528	83.65816909645086	963.52055774578	2315.902944787747	102.9103229255302	922.317139093645	2303.108042094071	128.8114601887004	965.6204397292991	2309.737447563034	1149.816946086629	853.3706437552032	2513.842697942071	74.07998357036973	987.756389107145	2475.016609328283	71.95318817002246	878.3250429293522	2203.347967868379	1113.098773481512	947.5170035050591	2381.325098929771	215.6272189084227	901.3167060846245	2339.340146481719	220.9091024987165	929.8589155811175	2382.613615062442	294.4465533326841	882.7899769034317	2341.162319514207	304.2259350937793	914.5279404162843	2403.879038719311	725.890082363603	845.7083414595464	2345.570927903857	700.2942227375237	876.7782496774478	2352.303919263063	822.877104924119	835.2363697562636	2297.017506184798	798.9398002385387	866.6104380434047	2371.946127576184	1055.353651789952	1113.917991436289	2010.654900909707	95.42852143785169	1042.88232850721	1824.997817784212	166.381906565369	1015.121137284044	1853.853457406943	162.0970605081578	1061.938616190084	1860.532934620319	197.9244306621271	1019.443560529435	2328.410661015067	1149.40790161584	1153.335190697511	2008.578389922922	43.48502617499879	991.8850521160801	1971.293928426503	55.61870198286551	1101.573126909455	2201.888661446737	1118.320726689186	1059.309700637194	1957.807164937321	246.3912822147254	1091.721795825573	1918.186548739856	267.293155785204	1057.537519671191	1979.40752454991	322.1182648828215	1112.295757289124	1939.961242352099	341.584939124327	1079.531165128499	2152.207669138576	693.3662023821672	1146.482248794861	2101.931687335406	712.4614301906109	1096.230135724133	2174.678736033828	799.7060209439979	1160.161287775946	2127.95052000454	817.8681062363288	1111.667370754985	
1691	11.26666666666667	2381.273644655711	1067.432228159689	905.2567943748799	2312.061477051565	74.07878224294389	964.0496959524244	2337.993760997608	94.49922910933871	922.9666719843744	2323.091919938751	119.9576090597232	965.8867292090594	2310.043764617972	1153.084356996047	853.390865266313	2536.436925518064	78.52333499554344	990.7536920803655	2499.129915369759	72.91950926800862	880.8536646897728	2204.409580702509	1116.359505721128	947.6056092720682	2396.678468055354	211.4021141414719	901.8204513237722	2354.1771331491	214.5256281592568	929.9102776722311	2393.745202409832	290.0082605690867	882.7013702349361	2351.475432277323	297.6977296542341	913.9519053036043	2400.085444785414	725.9440770267014	844.9580764251864	2341.503956370642	701.302960153374	876.2599045246346	2350.045793450211	823.7410648833441	834.4817786014939	2294.445458557885	800.6996535019528	865.9017923018733	2373.134909136664	1057.982980714125	1113.59669443418	1998.896973428545	98.36262344142538	1043.243761115258	1816.42740633878	177.214739579513	1015.477552970808	1845.024426401976	171.5849356543038	1062.344131247823	1853.307821909854	207.2521909046719	1020.020876562877	2330.051080665723	1153.032653587755	1152.460377710157	1995.017008589284	46.09259675878784	992.186304176534	1958.015252875795	59.33337551477348	1101.800833341814	2203.312037334141	1121.650867600478	1059.443093650878	1949.832716488575	252.3314805736604	1092.462386317889	1910.480328770403	273.3983925420076	1058.08269353847	1971.982157557797	327.9463074499271	1112.886490661716	1932.824654184005	347.6062733017325	1079.782257859933	2148.840856966951	697.9153536473684	1147.142488005298	2098.893994197733	717.7587321639943	1096.774438553467	2172.727196902782	804.0022094201614	1160.974062629544	2126.616027304083	822.7607087858856	1112.12611806129	
